<?xml version="1.0" encoding="UTF-8"?>
<svg id="Layer_1" data-name="Layer 1" xmlns="http://www.w3.org/2000/svg" xmlns:xlink="http://www.w3.org/1999/xlink" viewBox="0 0 1200 800">
  <defs>
    <style>
      .cls-1 {
        fill: url(#Gold);
      }

      .cls-2 {
        fill: url(#linear-gradient);
      }
    </style>
    <linearGradient id="linear-gradient" x1="600.15" y1="598.12" x2="600.15" y2="201.84" gradientUnits="userSpaceOnUse">
      <stop offset="0" stop-color="#d2a43b"/>
      <stop offset=".2" stop-color="#dfb82a"/>
      <stop offset=".43" stop-color="#e9c91e"/>
      <stop offset=".68" stop-color="#efd316"/>
      <stop offset="1" stop-color="#f2d714"/>
    </linearGradient>
    <linearGradient id="Gold" x1="490.5" y1="406.95" x2="709.32" y2="406.95" gradientUnits="userSpaceOnUse">
      <stop offset="0" stop-color="#d2a43b"/>
      <stop offset=".2" stop-color="#dfb82a"/>
      <stop offset=".43" stop-color="#e9c91e"/>
      <stop offset=".68" stop-color="#efd316"/>
      <stop offset="1" stop-color="#f2d714"/>
    </linearGradient>
  </defs>
  <g>
    <path d="M790.99,389.85c1.33-13.05,13.19-16.71,12.34-22.06-.85-5.34-13.26-5.17-18.55-17.17-1.76-6.63-3.87-13.1-6.29-19.4-2.7-12.76,7.39-19.89,4.94-24.7-2.45-4.8-14.11-.85-22.84-10.47-3.74-5.77-7.77-11.31-12.08-16.61-6.52-11.31.88-21.21-2.94-25.03-3.84-3.84-13.82,3.66-25.2-3.04-5.2-4.21-10.62-8.14-16.23-11.79-9.89-8.75-5.85-20.56-10.68-23.03-4.81-2.45-11.94,7.65-24.71,4.94-6.37-2.46-12.89-4.58-19.53-6.35-11.85-5.33-11.7-17.64-17.02-18.49-5.33-.84-8.99,10.95-21.96,12.33-6.73-.35-13.54-.36-20.39,0-13.05-1.33-16.71-13.19-22.06-12.34-5.34.85-5.17,13.26-17.17,18.55-6.63,1.76-13.1,3.87-19.4,6.29-12.76,2.7-19.89-7.39-24.7-4.94-4.8,2.45-.85,14.11-10.47,22.84-5.77,3.74-11.31,7.77-16.61,12.08-11.31,6.52-21.21-.88-25.03,2.94-3.84,3.84,3.66,13.82-3.04,25.2-4.21,5.2-8.14,10.62-11.79,16.23-8.75,9.89-20.56,5.85-23.03,10.68-2.45,4.81,7.65,11.94,4.94,24.71-2.46,6.37-4.58,12.89-6.35,19.53-5.33,11.85-17.64,11.7-18.49,17.02-.84,5.33,10.95,8.99,12.33,21.96-.35,6.73-.36,13.54,0,20.39-1.33,13.05-13.19,16.71-12.34,22.06.85,5.34,13.26,5.17,18.55,17.17,1.76,6.63,3.87,13.1,6.29,19.4,2.7,12.76-7.39,19.89-4.94,24.7,2.45,4.8,14.11.85,22.84,10.47,3.74,5.77,7.77,11.31,12.08,16.61,6.52,11.31-.88,21.21,2.94,25.03,3.84,3.84,13.82-3.66,25.2,3.04,5.2,4.21,10.62,8.14,16.23,11.79,9.89,8.75,5.85,20.56,10.68,23.03,4.81,2.45,11.94-7.65,24.71-4.94,6.37,2.46,12.89,4.58,19.53,6.35,11.85,5.33,11.7,17.64,17.02,18.49,5.33.84,8.99-10.95,21.96-12.33,6.73.35,13.54.36,20.39,0,13.05,1.33,16.71,13.19,22.06,12.34,5.34-.85,5.17-13.26,17.17-18.55,6.63-1.76,13.1-3.87,19.4-6.29,12.76-2.7,19.89,7.39,24.7,4.94,4.8-2.45.85-14.11,10.47-22.84,5.77-3.74,11.31-7.77,16.61-12.08,11.31-6.52,21.21.88,25.03-2.94s-3.66-13.82,3.04-25.2c4.21-5.2,8.14-10.62,11.79-16.23,8.75-9.89,20.56-5.85,23.03-10.68,2.45-4.81-7.65-11.94-4.94-24.71,2.46-6.37,4.58-12.89,6.35-19.53,5.33-11.85,17.64-11.7,18.49-17.02.84-5.33-10.95-8.99-12.33-21.96.35-6.73.36-13.54,0-20.39Z"/>
    <path class="cls-2" d="M431.86,471.4c-.04-.43-.15-.87-.3-1.28l-.15-.39-2.37-.93c.12.32.25.63.39.94l.44,1.02c.11.29.2.59.25.9.11.6.08,1.25-.09,1.85-.43,1.32-1.05,2.7-1.71,4-.34.68-.71,1.34-1.1,2-.01,0-.01,0-.01.02-.37.61-.75,1.21-1.14,1.81-1.63,2.5-3.52,4.83-5.52,7.1,2.32-1.94,4.45-4.11,6.35-6.49.3-.39.6-.78.89-1.17,0,0,0-.01,0-.02,1.51-2.06,2.83-4.27,3.79-6.75.28-.83.38-1.73.27-2.61ZM623.74,209.27c-.46.57-.92,1.14-1.41,1.69-.49.56-1.01,1.11-1.54,1.64-1.03,1.03-2.16,2.04-3.28,2.86-.53.34-1.12.57-1.74.65-.3.05-.61.07-.92.04l-1.1-.1c-1.51-.14-3.02-.25-4.53-.35-3.01-.18-6.04-.27-9.06-.28-3.03.02-6.05.09-9.08.28-1.51.1-3.01.22-4.52.36l-1.1.09c-.31.03-.62.02-.93-.03-.61-.08-1.21-.32-1.74-.66-1.12-.82-2.24-1.83-3.28-2.86-.52-.53-1.04-1.08-1.54-1.64-.48-.55-.94-1.12-1.4-1.69-1.87-2.32-3.51-4.84-5.04-7.43,1.12,2.8,2.53,5.49,4.2,8.04.28.41.57.83.87,1.24,1.49,2.07,3.18,4,5.24,5.67.7.52,1.52.9,2.39,1.06.43.09.88.13,1.32.11l1.14-.07c1.5-.08,2.99-.15,4.49-.2,2.99-.11,5.99-.18,8.98-.16,2.99-.02,5.98.05,8.97.16,1.49.05,2.99.12,4.48.21l1.14.06c.45.02.89,0,1.33-.1.87-.17,1.69-.54,2.39-1.06,2.06-1.68,3.75-3.62,5.24-5.68.3-.41.58-.82.87-1.24,1.67-2.54,3.08-5.24,4.2-8.04-1.54,2.59-3.17,5.11-5.04,7.43ZM563.65,211.32c-.25.68-.51,1.35-.8,2,0,0-.01,0-.01.02-.29.69-.62,1.38-.96,2.05-.66,1.3-1.42,2.61-2.24,3.73-.39.49-.89.9-1.44,1.17-.28.14-.57.25-.88.32l-1.08.24c-1.47.34-2.94.69-4.41,1.06-2.92.76-5.83,1.62-8.71,2.54-2.87.95-5.72,1.96-8.54,3.07-1.4.56-2.8,1.14-4.19,1.74l-1.02.43c-.29.12-.58.2-.89.25-.61.11-1.25.08-1.86-.09-1.32-.43-2.7-1.04-4-1.7-.68-.34-1.34-.71-2-1.11h-.01c-.61-.36-1.23-.74-1.82-1.14-2.49-1.63-4.83-3.53-7.09-5.52,1.94,2.32,4.11,4.45,6.49,6.35.38.3.78.6,1.17.88h.01c2.06,1.52,4.27,2.84,6.76,3.8.83.29,1.72.39,2.6.28.44-.04.87-.15,1.29-.31l1.07-.42c1.39-.54,2.8-1.07,4.2-1.58,2.81-1.03,5.63-2.02,8.48-2.93,2.84-.93,5.71-1.8,8.59-2.61,1.43-.41,2.88-.81,4.33-1.19l1.11-.29c.42-.12.84-.29,1.22-.51.77-.43,1.44-1.04,1.95-1.75,1.44-2.24,2.45-4.6,3.23-7.03.15-.48.3-.95.43-1.43.81-2.94,1.32-5.94,1.52-8.95-.67,2.94-1.44,5.85-2.5,8.63ZM508.17,231.83c-.14-3.04-.58-6.05-1.32-8.97.28,3,.43,6,.29,8.97-.03.72-.08,1.43-.15,2.15v.02c-.07.76-.17,1.51-.28,2.25-.23,1.44-.54,2.92-.98,4.24-.21.59-.56,1.13-1.01,1.56-.22.22-.46.41-.73.57l-.95.57c-1.29.78-2.58,1.56-3.87,2.37-2.54,1.63-5.04,3.34-7.5,5.1-2.43,1.8-4.84,3.65-7.17,5.57-1.16.96-2.31,1.95-3.45,2.94l-.84.73c-.23.2-.49.37-.76.52-.55.29-1.17.45-1.8.49-1.39-.01-2.9-.17-4.34-.39-.73-.12-1.46-.26-2.18-.42-.01,0-.02-.01-.03-.01-.71-.16-1.42-.33-2.12-.53-2.87-.78-5.68-1.86-8.45-3.06,2.55,1.61,5.28,2.96,8.13,4.04.47.18.95.34,1.43.49.01,0,.02.01.02.01,2.41.79,4.91,1.36,7.55,1.5.88.02,1.76-.17,2.56-.54.41-.18.78-.42,1.13-.69l.89-.73c1.16-.95,2.33-1.89,3.51-2.8,2.35-1.85,4.73-3.67,7.16-5.41,2.41-1.77,4.87-3.47,7.36-5.13,1.24-.84,2.49-1.67,3.74-2.48l.97-.62c.37-.25.71-.53,1.01-.86.6-.65,1.05-1.43,1.31-2.26.68-2.58.92-5.14.9-7.69v-.02c0-.49-.01-.99-.03-1.48ZM461.22,269.94s-.01-.02-.01-.03c-.16-.48-.32-.96-.49-1.43-1.08-2.84-2.43-5.57-4.04-8.12,1.19,2.76,2.27,5.57,3.05,8.45.2.71.38,1.41.54,2.12v.04c.16.72.3,1.44.42,2.17.23,1.44.38,2.94.38,4.34-.02.63-.19,1.25-.48,1.79-.15.27-.32.53-.52.77l-.72.83c-1,1.14-1.98,2.29-2.95,3.46-1.92,2.33-3.77,4.73-5.56,7.17-1.76,2.45-3.48,4.95-5.1,7.5-.81,1.28-1.6,2.57-2.37,3.87l-.57.95c-.17.27-.36.5-.57.73-.43.44-.97.79-1.56,1.02-1.32.42-2.81.74-4.24.97-.74.12-1.5.21-2.25.28-.23.4-.46.8-.68,1.21,2.55.01,5.11-.23,7.68-.91.84-.26,1.63-.7,2.27-1.31.33-.29.61-.64.86-1l.62-.97c.81-1.26,1.64-2.51,2.47-3.75,1.67-2.48,3.37-4.95,5.15-7.35,1.74-2.43,3.55-4.81,5.4-7.16.92-1.18,1.86-2.36,2.81-3.51l.72-.89c.28-.35.51-.73.69-1.13.38-.8.56-1.69.55-2.56-.15-2.64-.71-5.14-1.5-7.55ZM462.17,519.91c-.18-.4-.41-.78-.69-1.12l-.73-.89c-.94-1.16-1.88-2.34-2.8-3.52-1.85-2.35-3.66-4.73-5.4-7.16-1.78-2.41-3.48-4.86-5.14-7.36-.84-1.23-1.66-2.48-2.48-3.74l-.61-.97c-.26-.36-.54-.71-.87-1.01-.64-.6-1.43-1.04-2.26-1.31-2.58-.67-5.14-.91-7.69-.9h-.03c-.48,0-.97.01-1.46.03-3.05.15-6.06.58-8.98,1.32,3-.27,6-.43,8.98-.29.71.04,1.43.08,2.14.15h.03c.75.07,1.51.17,2.25.29,1.43.22,2.92.54,4.24.97.58.22,1.13.57,1.55,1.01.22.23.41.47.58.73l.56.95c.78,1.3,1.57,2.59,2.37,3.87,1.63,2.55,3.34,5.05,5.11,7.5,1.8,2.44,3.64,4.84,5.56,7.18.97,1.15,1.95,2.31,2.95,3.44l.72.84c.2.23.38.5.52.77.3.55.46,1.16.49,1.8-.01,1.39-.16,2.89-.39,4.33-.11.73-.25,1.46-.41,2.18h0s-.01.03-.01.03c-.16.71-.34,1.42-.54,2.12-.78,2.88-1.85,5.69-3.05,8.45,1.61-2.55,2.96-5.28,4.03-8.12.18-.48.34-.96.5-1.44v-.02c.8-2.42,1.36-4.9,1.51-7.55.01-.87-.17-1.76-.55-2.56ZM507.29,558.95c-.25-.84-.7-1.62-1.3-2.27-.3-.33-.64-.61-1.01-.86l-.97-.62c-1.25-.81-2.5-1.63-3.75-2.47-2.48-1.67-4.94-3.36-7.35-5.14-2.43-1.74-4.81-3.56-7.16-5.41-1.18-.92-2.35-1.86-3.51-2.8l-.89-.72c-.34-.28-.72-.52-1.13-.7-.8-.37-1.68-.55-2.56-.55-2.64.15-5.14.72-7.55,1.51h0c-.49.17-.97.33-1.44.5-2.85,1.08-5.58,2.43-8.13,4.04,2.77-1.2,5.58-2.28,8.45-3.06.7-.2,1.41-.37,2.13-.53,0-.01.01-.01.02-.01.72-.16,1.45-.3,2.18-.41,1.44-.23,2.95-.39,4.34-.39.63.03,1.25.2,1.8.48.27.15.53.32.76.52l.83.73c1.15,1,2.29,1.98,3.46,2.94,2.33,1.92,4.73,3.77,7.17,5.57,2.46,1.76,4.96,3.47,7.5,5.09,1.29.82,2.58,1.6,3.87,2.38l.95.57c.27.16.51.35.73.57.45.43.8.96,1.02,1.56.43,1.32.74,2.8.97,4.24.12.74.22,1.49.29,2.25v.02c.06.71.11,1.43.14,2.15.15,2.98-.01,5.97-.29,8.98.73-2.93,1.18-5.94,1.32-8.98.02-.49.03-1,.03-1.48v-.02c0-2.56-.23-5.11-.91-7.68ZM564.63,588.33c-.13-.49-.28-.96-.43-1.44-.78-2.43-1.8-4.79-3.23-7.03-.51-.71-1.18-1.32-1.95-1.75-.39-.22-.8-.39-1.22-.5l-1.11-.3c-1.45-.38-2.9-.77-4.33-1.19-2.88-.81-5.75-1.67-8.59-2.61-2.85-.91-5.67-1.9-8.48-2.94-1.4-.51-2.8-1.03-4.2-1.58l-1.07-.41c-.42-.16-.85-.27-1.29-.32-.88-.1-1.77,0-2.6.28-2.49.97-4.7,2.28-6.76,3.8h-.01c-.39.29-.79.59-1.17.89-2.38,1.9-4.56,4.03-6.49,6.35,2.26-1.99,4.6-3.88,7.09-5.51.59-.4,1.21-.78,1.81-1.15h.02c.65-.39,1.32-.76,2-1.11,1.3-.65,2.68-1.27,4-1.7.61-.17,1.25-.2,1.86-.09.31.05.6.13.89.25l1.02.44c1.39.59,2.79,1.17,4.19,1.73,2.82,1.1,5.67,2.12,8.54,3.07,2.89.92,5.79,1.78,8.71,2.54,1.47.36,2.94.72,4.41,1.05l1.08.25c.31.08.6.18.88.32.56.27,1.05.67,1.45,1.17.81,1.12,1.57,2.43,2.23,3.73.34.67.67,1.36.96,2.05,0,.01.01.01.01.02.29.65.55,1.33.8,2,1.06,2.79,1.84,5.69,2.5,8.63-.2-3.01-.71-6.01-1.52-8.94ZM624.58,590.09c-.29-.42-.58-.84-.87-1.25,0,0,0-.01-.01-.01-1.49-2.06-3.17-3.98-5.23-5.66-.7-.52-1.52-.9-2.39-1.06-.44-.09-.88-.13-1.33-.11l-1.14.07c-1.49.08-2.99.15-4.48.2-2.99.11-5.98.18-8.97.16-2.99.02-5.99-.05-8.98-.16-1.5-.05-2.99-.12-4.49-.21l-1.14-.06c-.44-.02-.89.01-1.32.1-.87.17-1.69.54-2.39,1.06-2.06,1.69-3.75,3.62-5.24,5.68-.3.41-.59.82-.87,1.24-1.67,2.54-3.08,5.24-4.2,8.04,1.54-2.59,3.17-5.11,5.04-7.43.46-.57.92-1.13,1.4-1.68h0s.01-.01.01-.01c.49-.56,1.01-1.11,1.53-1.63,1.04-1.04,2.16-2.05,3.28-2.87.53-.34,1.13-.57,1.74-.65.31-.05.62-.07.93-.04l1.1.1c1.51.14,3.01.25,4.52.35,3.03.18,6.05.27,9.08.28,3.02-.02,6.05-.09,9.06-.28,1.51-.1,3.02-.22,4.53-.36l1.1-.09c.31-.03.62-.02.93.03.61.08,1.21.32,1.73.66,1.13.82,2.25,1.83,3.28,2.87.53.52,1.04,1.07,1.54,1.63.49.55.96,1.12,1.41,1.69,1.87,2.32,3.5,4.84,5.04,7.43-1.12-2.8-2.53-5.49-4.2-8.03ZM682.12,573.23c-.39-.3-.78-.6-1.18-.89-.01-.01-.02-.01-.02-.02-2.06-1.5-4.26-2.81-6.74-3.77-.83-.29-1.73-.39-2.6-.28-.44.04-.87.15-1.29.31l-1.07.42c-1.39.54-2.8,1.07-4.2,1.58-2.81,1.03-5.64,2.02-8.48,2.93-2.84.93-5.71,1.8-8.59,2.61-1.44.41-2.88.81-4.33,1.19l-1.11.29c-.42.12-.84.29-1.22.51-.78.43-1.45,1.04-1.95,1.75-1.44,2.24-2.45,4.59-3.23,7.02h0c-.15.49-.3.96-.44,1.45-.8,2.93-1.31,5.93-1.51,8.94.66-2.94,1.44-5.84,2.49-8.63.26-.68.53-1.35.82-2.02.3-.69.61-1.38.96-2.05.66-1.3,1.42-2.61,2.24-3.73.39-.49.89-.9,1.44-1.17.28-.14.57-.24.87-.32l1.09-.24c1.46-.34,2.93-.69,4.4-1.06,2.93-.76,5.84-1.62,8.72-2.54,2.87-.95,5.72-1.96,8.54-3.07,1.4-.56,2.8-1.14,4.19-1.73l1.01-.44c.29-.12.59-.2.9-.25.61-.11,1.25-.08,1.86.09,1.32.43,2.7,1.04,4,1.7.67.35,1.34.71,1.99,1.1.01,0,.01.01.01.01.62.36,1.23.75,1.83,1.14,2.49,1.63,4.82,3.53,7.09,5.52-1.93-2.32-4.11-4.45-6.49-6.35ZM731.65,539.42c-.48-.17-.97-.35-1.46-.5h-.02c-2.41-.8-4.89-1.36-7.52-1.5-.88-.01-1.76.17-2.56.54-.41.18-.78.42-1.13.7l-.89.72c-1.16.95-2.33,1.89-3.51,2.8-2.35,1.85-4.73,3.67-7.16,5.41-2.41,1.77-4.87,3.47-7.36,5.13-1.24.84-2.49,1.67-3.75,2.48l-.96.62c-.37.25-.71.53-1.01.86-.6.65-1.05,1.43-1.31,2.26-.68,2.58-.91,5.13-.91,7.67v.02c0,.5.02.99.04,1.5.14,3.04.58,6.05,1.32,8.98-.28-3.01-.43-6-.29-8.98.03-.73.08-1.45.15-2.18h0c.07-.75.16-1.51.28-2.24.23-1.44.54-2.92.97-4.24.22-.59.57-1.13,1.02-1.56.22-.22.47-.41.72-.57l.96-.57c1.29-.78,2.58-1.56,3.86-2.37,2.55-1.63,5.05-3.34,7.51-5.1,2.43-1.8,4.84-3.65,7.17-5.57,1.16-.96,2.31-1.95,3.45-2.94l.83-.73c.24-.2.5-.37.77-.52.55-.29,1.17-.45,1.8-.48,1.39,0,2.89.16,4.34.38.72.12,1.43.25,2.15.41,0,0,.02.01.02.01h.01c.72.16,1.44.34,2.15.54,2.88.78,5.68,1.86,8.45,3.06-2.56-1.61-5.28-2.96-8.13-4.04ZM768.3,491.96c-.5-.02-1-.03-1.49-.03h-.04c-2.54-.01-5.09.23-7.65.91-.83.26-1.61.7-2.26,1.31-.33.29-.62.64-.86,1l-.63.97c-.8,1.26-1.63,2.51-2.47,3.75-1.66,2.48-3.36,4.94-5.14,7.35-1.74,2.43-3.56,4.81-5.41,7.16-.92,1.18-1.85,2.36-2.8,3.51l-.72.89c-.28.35-.52.73-.7,1.13-.37.8-.55,1.69-.54,2.56.14,2.63.7,5.11,1.5,7.52v.03c.16.49.33.97.51,1.46,1.07,2.84,2.42,5.57,4.03,8.12-1.19-2.76-2.27-5.57-3.05-8.45-.2-.71-.38-1.43-.55-2.15v-.02c-.16-.72-.3-1.44-.41-2.16-.23-1.44-.38-2.94-.38-4.33.02-.64.19-1.25.48-1.8.15-.27.31-.53.51-.77l.73-.83c1-1.14,1.98-2.29,2.95-3.45,1.92-2.34,3.77-4.74,5.56-7.18,1.76-2.45,3.47-4.95,5.1-7.5.81-1.28,1.6-2.57,2.38-3.87l.56-.95c.16-.26.36-.5.57-.73.43-.44.97-.79,1.56-1.02,1.32-.42,2.8-.74,4.24-.97.73-.12,1.48-.21,2.22-.28h.03c.72-.07,1.45-.11,2.17-.15,2.98-.14,5.98.02,8.98.29-2.93-.73-5.94-1.17-8.98-1.32ZM774.24,481.34c-.4-.6-.78-1.22-1.15-1.83l-.02-.04c-.39-.63-.75-1.29-1.08-1.96-.66-1.3-1.27-2.68-1.7-4-.17-.6-.21-1.25-.1-1.85.05-.31.13-.61.25-.89l.44-1.03c.13-.31.26-.62.39-.94l-2.37.93-.15.39c-.15.41-.26.85-.31,1.28-.11.88-.01,1.78.27,2.61.36.93.78,1.82,1.23,2.68.15.28.29.56.46.83v.02c.1.17.2.33.3.5.06.11.12.21.18.31.5.82,1.04,1.61,1.6,2.38h0s.02.02.02.03c.29.4.6.79.91,1.19,1.9,2.38,4.02,4.55,6.34,6.49-1.99-2.27-3.88-4.6-5.51-7.1ZM766.26,307.04c-.05-.07-.09-.14-.13-.22-.75-.07-1.5-.17-2.24-.29-1.45-.22-2.92-.54-4.25-.97-.59-.22-1.13-.57-1.55-1.01-.22-.23-.42-.47-.58-.73l-.56-.95c-.78-1.3-1.57-2.59-2.38-3.87-1.63-2.55-3.33-5.05-5.1-7.5-1.8-2.44-3.64-4.84-5.56-7.17-.97-1.16-1.95-2.32-2.95-3.45l-.73-.84c-.2-.23-.37-.5-.51-.77-.3-.54-.46-1.16-.48-1.79,0-1.4.15-2.9.38-4.34.11-.72.25-1.44.41-2.16v-.02c-.29-.3-.54-.57-.82-.86-.04-.05-.08-.09-.12-.13-.4,1.2-.74,2.41-.99,3.66-.05.24-.1.49-.14.73-.19,1.02-.31,2.06-.37,3.13-.01.87.17,1.76.54,2.56.18.4.42.78.7,1.12l.73.89c.94,1.16,1.88,2.34,2.79,3.52,1.85,2.35,3.67,4.73,5.41,7.16,1.77,2.41,3.48,4.86,5.14,7.36.84,1.23,1.66,2.48,2.47,3.74l.62.97c.25.36.54.71.87,1.01.64.6,1.43,1.04,2.26,1.31,2.58.67,5.13.91,7.69.9-.18-.33-.36-.66-.55-.99ZM739.6,268.48c-.18.49-.35.97-.51,1.46v.03s.08.08.12.13c.28.29.53.56.82.86.17-.72.35-1.44.55-2.15.78-2.88,1.85-5.69,3.05-8.45-1.61,2.55-2.96,5.28-4.03,8.12ZM731.33,259.56c-.71.2-1.43.38-2.15.54-.73.16-1.46.3-2.18.41-1.45.23-2.95.39-4.34.39-.63-.03-1.25-.19-1.8-.48-.27-.15-.53-.32-.77-.52l-.83-.73c-1.14-1-2.29-1.98-3.45-2.94-2.33-1.92-4.73-3.77-7.17-5.57-2.46-1.75-4.95-3.47-7.51-5.09-1.28-.82-2.57-1.6-3.86-2.38l-.96-.57c-.26-.16-.5-.35-.73-.57-.44-.43-.79-.96-1.01-1.56-.43-1.32-.74-2.8-.98-4.24-.11-.74-.21-1.5-.28-2.25-.06-.72-.11-1.45-.14-2.17-.15-2.97,0-5.97.29-8.97-.74,2.92-1.18,5.93-1.32,8.97-.02.5-.04,1-.04,1.5,0,2.55.24,5.11.91,7.68.26.84.71,1.62,1.31,2.27.3.33.64.61,1.01.86l.96.62c1.26.81,2.51,1.63,3.75,2.47,2.49,1.67,4.95,3.36,7.36,5.14,2.43,1.74,4.81,3.56,7.16,5.41,1.18.92,2.35,1.86,3.51,2.8l.88.73c.36.27.73.51,1.14.69.8.37,1.68.56,2.56.55,2.64-.15,5.13-.72,7.54-1.51.49-.15.98-.32,1.46-.5,2.85-1.08,5.57-2.43,8.13-4.04-2.77,1.2-5.58,2.27-8.45,3.06ZM681.52,225.89c-.6.4-1.22.79-1.83,1.15-.66.39-1.33.77-2,1.11-1.3.65-2.68,1.27-4,1.7-.61.17-1.25.2-1.86.09-.31-.05-.61-.13-.89-.25l-1.02-.43c-1.39-.6-2.79-1.18-4.19-1.74-2.82-1.1-5.67-2.12-8.54-3.07-2.88-.92-5.79-1.78-8.72-2.54-1.47-.36-2.94-.72-4.4-1.05l-1.09-.25c-.3-.07-.59-.18-.87-.32-.56-.27-1.05-.67-1.45-1.17-.81-1.12-1.57-2.43-2.23-3.73-.35-.67-.67-1.36-.96-2.05-.29-.67-.56-1.34-.82-2.02-1.05-2.78-1.83-5.69-2.49-8.63.2,3.01.71,6.01,1.51,8.95.14.48.29.96.44,1.43.78,2.43,1.79,4.79,3.24,7.03.5.71,1.16,1.32,1.94,1.75.38.22.8.39,1.22.5l1.11.3c1.45.38,2.89.77,4.33,1.19,2.88.81,5.75,1.67,8.59,2.61,2.84.91,5.67,1.9,8.48,2.94,1.4.51,2.81,1.03,4.2,1.58l1.07.41c.42.16.85.27,1.29.32.87.1,1.78,0,2.6-.28,2.48-.97,4.69-2.28,6.76-3.8.4-.29.79-.59,1.18-.89,2.38-1.9,4.56-4.03,6.49-6.35-2.27,1.99-4.6,3.88-7.09,5.51ZM765.05,441.65c-5.23,2.94-9.16,7.73-11.02,13.43l-4.58,14.01,8.78-3.44.25-.64c.51-1.31,1-2.62,1.48-3.93.97-2.64,1.9-5.28,2.75-7.95.88-2.65,1.68-5.34,2.45-8.04.39-1.35.76-2.7,1.11-4.06l.03-.08-1.25.7ZM768.43,439.75c-.11.21-.19.44-.25.69l-.23,1.01c-.31,1.38-.65,2.75-.99,4.13-.71,2.74-1.52,5.46-2.37,8.16-.9,2.69-1.84,5.36-2.88,8-.41,1.02-.83,2.04-1.26,3.04l1.17-.45c.31-.12.6-.25.89-.38.05-.02.09-.04.13-.06.23-.1.45-.21.67-.33.14-.06.28-.13.41-.21.06-.03.14-.07.2-.11.21-.11.42-.23.62-.35t.02-.01c3.13-8.22,5.62-16.62,7.48-25.16l-3.61,2.03ZM768.4,410.57c-4.6,3.85-7.58,9.28-8.36,15.23l-1.91,14.62,11.08-6.93c.83-.52,1.61-1.09,2.33-1.72.18-.15.36-.31.54-.47.15-.14.3-.29.45-.43.19-.19.38-.38.56-.58.17-.18.32-.35.48-.53,1.41-8.4,2.21-16.91,2.4-25.54l-7.57,6.35ZM765.81,341.16l-5.44,9.31c-3.03,5.17-4.01,11.29-2.74,17.14l3.11,14.42,8.1-10.26c.15-.18.29-.37.43-.56.07-.09.13-.17.19-.26.12-.17.24-.34.35-.51.15-.23.3-.46.43-.69.14-.22.27-.45.39-.67.15-.26.28-.52.41-.79.09-.19.18-.38.27-.57.13-.29.26-.59.37-.88.08-.22.16-.42.23-.63.03-.09.06-.17.09-.24.06-.21.13-.42.19-.63.08-.24.14-.48.2-.72-1.63-7.96-3.83-15.79-6.58-23.46ZM748.17,438.09l-7.76-9.95-2.78,10.87c-1.38,5.38-.69,11.1,1.95,16.03l6.47,12.13,4.61-11.18c2.45-5.95,1.5-12.79-2.49-17.9ZM750.82,410.68l-8.78-7.33c-.1,4.9-.45,9.75-1.05,14.55h0s0,.03.01.04c.04.3.08.6.14.91,0,.03.01.07.02.11.05.29.11.58.17.86.06.29.13.57.21.84,0,.05.02.09.03.14.06.23.12.45.19.67.02.08.04.15.07.23.09.29.18.58.29.86.09.24.18.48.28.72.05.14.11.29.17.42.05.12.1.25.16.36.06.15.12.29.2.43.24.51.5,1.02.79,1.52.14.24.28.49.43.73.14.22.28.43.42.64.08.12.17.24.25.36.12.17.24.33.36.49.23.31.47.61.72.9l8.65,10.32,2.23-11.93c1.18-6.34-1.09-12.77-5.96-16.84ZM749.99,383.36l-9.73-5.86c.85,5.3,1.4,10.66,1.65,16.07h0s.03.07.04.1c.06.18.13.36.21.54.08.2.17.41.26.61.09.21.19.41.28.61.38.79.81,1.56,1.28,2.29.13.21.26.41.4.61.09.12.17.24.26.36.16.23.33.46.51.69,0,.01,0,.02.02.03.18.23.38.47.57.69.04.04.07.09.1.12.2.23.39.45.6.67.02.02.04.04.05.05.11.11.21.22.32.33.1.1.22.21.32.32.05.04.09.08.12.12.23.21.46.43.7.63l10.13,8.87.37-12.13c.2-6.45-3.03-12.45-8.46-15.72ZM754.87,370.79c-.91-6.39-5.13-11.75-11.04-14.04l-9.86-3.8c1.99,5.6,3.62,11.31,4.87,17.1,0,.02.02.03.03.04.14.21.3.42.48.63.08.11.16.21.26.32.15.2.32.39.49.58.03.04.06.07.09.11.23.26.47.51.71.75h0c.21.22.42.43.64.62.06.07.12.12.18.18.19.17.37.33.55.47.08.08.15.15.24.22.22.18.46.37.69.55.17.13.33.25.5.36.17.13.35.26.52.37.29.19.57.38.87.56l11.5,6.99-1.72-12.01ZM440.26,425.8c-.78-5.95-3.76-11.38-8.35-15.23l-7.57-6.35c.19,8.63.99,17.15,2.41,25.54h0c.14.17.28.33.42.48.05.05.1.1.14.15.13.14.27.28.4.41.17.17.34.34.52.5.17.16.35.32.54.47.73.63,1.5,1.2,2.33,1.72l11.07,6.93-1.91-14.62ZM432.86,380.37l-6.46-7.34c-1.26,8.1-1.96,16.31-2.08,24.61.12.23.26.46.39.69.14.22.28.44.43.66.95,1.44,2.12,2.75,3.46,3.91l9.91,8.51.31-14.73c.12-6-2-11.82-5.96-16.31ZM462.68,439.01l-2.79-10.87-7.75,9.95c-4,5.11-4.94,11.95-2.49,17.9l4.6,11.18,6.48-12.13c2.63-4.93,3.33-10.65,1.95-16.03ZM458.27,403.35l-8.79,7.33c-4.86,4.07-7.14,10.5-5.95,16.84l2.22,11.93,8.66-10.32c.24-.29.48-.59.71-.9.12-.16.24-.32.36-.49.09-.13.18-.25.27-.39.04-.06.09-.13.13-.2.1-.15.2-.31.3-.47.31-.49.6-.99.86-1.51.14-.27.27-.53.4-.8.02-.05.05-.11.07-.17.1-.2.19-.41.28-.62.03-.08.06-.16.09-.23.11-.27.21-.53.3-.8.11-.28.2-.56.29-.85.09-.28.17-.55.24-.83.05-.15.09-.31.12-.47.04-.12.07-.24.09-.36.04-.13.07-.26.09-.38.04-.17.07-.35.1-.52.03-.14.06-.29.08-.44.05-.26.08-.52.12-.78v-.02c-.59-4.8-.94-9.65-1.04-14.55ZM450.32,383.36c-5.43,3.27-8.67,9.27-8.47,15.72l.38,12.13,10.13-8.87c.23-.2.47-.42.69-.63.05-.05.09-.08.12-.12.11-.11.22-.22.32-.32.11-.11.22-.22.32-.33.27-.28.53-.57.78-.86.2-.23.38-.47.56-.7.18-.23.35-.45.51-.68.09-.11.17-.23.25-.35.26-.39.52-.77.75-1.17.11-.16.2-.34.3-.51.13-.23.26-.47.38-.7.13-.26.26-.52.38-.78.05-.11.1-.23.15-.34.1-.21.19-.44.28-.65.09-.21.17-.41.24-.62h.01c.24-5.43.8-10.78,1.65-16.08l-9.73,5.86ZM456.48,356.75c-5.91,2.29-10.13,7.65-11.05,14.04l-1.72,12.01,11.51-6.99c.3-.18.58-.37.86-.56.18-.11.35-.24.53-.37.39-.27.76-.56,1.12-.86.15-.12.3-.25.45-.39.14-.11.27-.23.4-.35.07-.06.13-.11.19-.18.22-.19.43-.4.63-.61,0,0,.01,0,.01-.01.25-.24.48-.49.71-.75.03-.04.06-.07.09-.11.17-.19.34-.38.49-.58.09-.11.18-.21.26-.32.17-.21.33-.42.48-.63.01-.01.02-.02.03-.04,1.25-5.79,2.87-11.5,4.87-17.1l-9.86,3.8ZM439.94,350.47l-5.45-9.3c-2.75,7.67-4.94,15.5-6.58,23.45.13.49.28.99.44,1.47.09.25.18.5.28.75.08.2.17.41.26.61.06.15.12.3.19.44.14.31.29.61.45.91.07.15.15.29.24.44.33.59.69,1.16,1.08,1.71.07.11.14.21.22.3.13.18.26.35.39.52l8.11,10.26,3.11-14.42c1.27-5.85.28-11.97-2.74-17.14ZM750.82,410.68l-8.78-7.33c-.1,4.9-.45,9.75-1.05,14.55h0s0,.03.01.04c.04.3.08.6.14.91,0,.03.01.07.02.11.05.29.11.58.17.86.06.29.13.57.21.84,0,.05.02.09.03.14.06.23.12.45.19.67.02.08.04.15.07.23.09.29.18.58.29.86.09.24.18.48.28.72.05.14.11.29.17.42.05.12.1.25.16.36.06.15.12.29.2.43.24.51.5,1.02.79,1.52.14.24.28.49.43.73.14.22.28.43.42.64.08.12.17.24.25.36.12.17.24.33.36.49.23.31.47.61.72.9l8.65,10.32,2.23-11.93c1.18-6.34-1.09-12.77-5.96-16.84ZM748.17,438.09l-7.76-9.95-2.78,10.87c-1.38,5.38-.69,11.1,1.95,16.03l6.47,12.13,4.61-11.18c2.45-5.95,1.5-12.79-2.49-17.9ZM749.99,383.36l-9.73-5.86c.85,5.3,1.4,10.66,1.65,16.07h0s.03.07.04.1c.06.18.13.36.21.54.08.2.17.41.26.61.09.21.19.41.28.61.38.79.81,1.56,1.28,2.29.13.21.26.41.4.61.09.12.17.24.26.36.16.23.33.46.51.69,0,.01,0,.02.02.03.18.23.38.47.57.69.04.04.07.09.1.12.2.23.39.45.6.67.02.02.04.04.05.05.11.11.21.22.32.33.1.1.22.21.32.32.05.04.09.08.12.12.23.21.46.43.7.63l10.13,8.87.37-12.13c.2-6.45-3.03-12.45-8.46-15.72ZM458.27,403.35l-8.79,7.33c-4.86,4.07-7.14,10.5-5.95,16.84l2.22,11.93,8.66-10.32c.24-.29.48-.59.71-.9.12-.16.24-.32.36-.49.09-.13.18-.25.27-.39.04-.06.09-.13.13-.2.1-.15.2-.31.3-.47.31-.49.6-.99.86-1.51.14-.27.27-.53.4-.8.02-.05.05-.11.07-.17.1-.2.19-.41.28-.62.03-.08.06-.16.09-.23.11-.27.21-.53.3-.8.11-.28.2-.56.29-.85.09-.28.17-.55.24-.83.05-.15.09-.31.12-.47.04-.12.07-.24.09-.36.04-.13.07-.26.09-.38.04-.17.07-.35.1-.52.03-.14.06-.29.08-.44.05-.26.08-.52.12-.78v-.02c-.59-4.8-.94-9.65-1.04-14.55ZM450.32,383.36c-5.43,3.27-8.67,9.27-8.47,15.72l.38,12.13,10.13-8.87c.23-.2.47-.42.69-.63.05-.05.09-.08.12-.12.11-.11.22-.22.32-.32.11-.11.22-.22.32-.33.27-.28.53-.57.78-.86.2-.23.38-.47.56-.7.18-.23.35-.45.51-.68.09-.11.17-.23.25-.35.26-.39.52-.77.75-1.17.11-.16.2-.34.3-.51.13-.23.26-.47.38-.7.13-.26.26-.52.38-.78.05-.11.1-.23.15-.34.1-.21.19-.44.28-.65.09-.21.17-.41.24-.62h.01c.24-5.43.8-10.78,1.65-16.08l-9.73,5.86ZM462.68,439.01l-2.79-10.87-7.75,9.95c-4,5.11-4.94,11.95-2.49,17.9l4.6,11.18,6.48-12.13c2.63-4.93,3.33-10.65,1.95-16.03ZM456.48,356.75c-5.91,2.29-10.13,7.65-11.05,14.04l-1.72,12.01,11.51-6.99c.3-.18.58-.37.86-.56.18-.11.35-.24.53-.37.39-.27.76-.56,1.12-.86.15-.12.3-.25.45-.39.14-.11.27-.23.4-.35.07-.06.13-.11.19-.18.22-.19.43-.4.63-.61,0,0,.01,0,.01-.01.25-.24.48-.49.71-.75.03-.04.06-.07.09-.11.17-.19.34-.38.49-.58.09-.11.18-.21.26-.32.17-.21.33-.42.48-.63.01-.01.02-.02.03-.04,1.25-5.79,2.87-11.5,4.87-17.1h0s-9.86,3.8-9.86,3.8ZM439.94,350.47l-5.45-9.3c-2.75,7.67-4.94,15.5-6.58,23.45.13.49.28.99.44,1.47.09.25.18.5.28.75.08.2.17.41.26.61.06.15.12.3.19.44.14.31.29.61.45.91.07.15.15.29.24.44.33.59.69,1.16,1.08,1.71.07.11.14.21.22.3.13.18.26.35.39.52l8.11,10.26,3.11-14.42c1.27-5.85.28-11.97-2.74-17.14ZM432.86,380.37l-6.46-7.34c-1.26,8.1-1.96,16.31-2.08,24.61.12.23.26.46.39.69.14.22.28.44.43.66.95,1.44,2.12,2.75,3.46,3.91l9.91,8.51.31-14.73c.12-6-2-11.82-5.96-16.31ZM440.26,425.8c-.78-5.95-3.76-11.38-8.35-15.23l-7.57-6.35c.19,8.63.99,17.15,2.41,25.54h0c.14.17.28.33.42.48.05.05.1.1.14.15.13.14.27.28.4.41.17.17.34.34.52.5.17.16.35.32.54.47.73.63,1.5,1.2,2.33,1.72l11.07,6.93-1.91-14.62ZM446.28,455.08c-1.87-5.7-5.8-10.49-11.02-13.43l-1.25-.7-2.12-1.2-3.62-2.03c1.85,8.54,4.34,16.93,7.47,25.15.19.12.38.23.57.33.16.09.31.18.47.26.04.02.09.04.13.06.23.12.46.24.71.35.35.16.7.31,1.06.46l1.18.45,2.22.87,8.78,3.44-4.58-14.01ZM768.43,439.75l-2.13,1.2-1.25.7c-5.23,2.94-9.16,7.73-11.02,13.43l-4.58,14.01,8.78-3.44,2.22-.87,1.17-.45c.31-.12.6-.25.89-.38.05-.02.09-.04.13-.06.23-.1.45-.21.67-.33.14-.06.28-.13.41-.21.06-.03.14-.07.2-.11.21-.11.42-.23.62-.35t.02-.01c3.13-8.22,5.62-16.62,7.48-25.16l-3.61,2.03ZM768.4,410.57c-4.6,3.85-7.58,9.28-8.36,15.23l-1.91,14.62,11.08-6.93c.83-.52,1.61-1.09,2.33-1.72.18-.15.36-.31.54-.47.15-.14.3-.29.45-.43.19-.19.38-.38.56-.58.17-.18.32-.35.48-.53,1.41-8.4,2.21-16.91,2.4-25.54l-7.57,6.35ZM773.91,373.02l-6.46,7.35c-3.96,4.49-6.09,10.31-5.97,16.31l.31,14.73,9.92-8.51c1.75-1.51,3.2-3.29,4.28-5.26-.12-8.3-.81-16.52-2.08-24.62ZM744.52,473.12c-3.38,6.68-7.16,13.17-11.33,19.39-32.41,50.48-93.64,83.87-154.07,72.51-37.29-6.92-69.76-29.53-95.37-56.77-10.24-10.98-19.68-22.8-27.78-35.43l-2.93,1.93c17.41,24.91,38.62,47.28,63.61,64.64,18.67,12.94,39.79,22.86,62.23,26.93,70.53,12.52,136.29-30.53,169.04-91.41l-3.4-1.79ZM500.9,282.1c-.32-.45-.94-.56-1.39-.24-11.01,7.78-21.97,20.43-29.32,33.83-.26.48-.09,1.09.4,1.35.15.09.32.13.48.13.35,0,.69-.19.88-.52,7.21-13.15,17.94-25.54,28.71-33.16.45-.32.56-.94.24-1.39ZM499.27,272.15c-.29-.48-.91-.63-1.38-.34-10.28,6.25-25.21,20.85-35.39,39.39-.27.48-.09,1.09.39,1.36.15.08.32.12.48.12.35,0,.7-.19.88-.52,10-18.21,24.63-32.53,34.68-38.64.47-.29.62-.9.34-1.37ZM730.02,315.69c-7.35-13.4-18.31-26.05-29.32-33.83-.45-.32-1.07-.21-1.39.24s-.21,1.07.24,1.39c10.77,7.62,21.5,20.01,28.71,33.16.18.33.53.52.88.52.16,0,.33-.04.48-.13.48-.26.66-.87.4-1.35ZM737.71,311.2c-10.18-18.54-25.11-33.14-35.39-39.39-.48-.29-1.09-.14-1.38.34-.28.47-.13,1.08.34,1.37,10.05,6.11,24.68,20.43,34.68,38.64.18.33.52.52.88.52.16,0,.32-.04.48-.12.48-.27.66-.88.39-1.36ZM753.51,356.92l-18.29-13.68.88-21.77c-.26-.07-.49-.26-.62-.53-7.24-15.75-18.69-30.29-31.41-39.91-.01-.01-.03-.02-.04-.03-18.21-13.95-55.81-37.29-103.35-37.29h-.52c-19.3.07-35.98,3.87-46.59,7.04-20.87,6.26-40.18,16.43-57.38,30.24-.01.01-.03.02-.04.03-12.72,9.63-24.17,24.17-31.42,39.92-.11.24-.3.41-.52.49l.88,21.81-18.29,13.68c-3.32-8.02-4.31-15.54-3.58-22.27,5.51-5.89,12.02-10.56,19.63-13.91-.05-.21-.03-.43.06-.64,7.39-16.03,19.06-30.85,32.03-40.67.02-.01.03-.03.05-.04,17.39-13.95,36.9-24.23,58.01-30.55,10.73-3.21,27.62-7.06,47.15-7.13h.53c48.13,0,86.15,23.6,104.57,37.7,12.98,9.82,24.66,24.65,32.05,40.69.09.19.11.4.06.6,7.64,3.35,14.19,8.03,19.72,13.95.73,6.73-.25,14.25-3.57,22.27Z"/>
  </g>
  <g>
    <path class="cls-1" d="M545.74,427.5c-5.67,2.71-13.2,4.4-20.55,4.4-20.81,0-34.68-13.36-34.68-31.21s14.46-31.89,34.34-31.89c7.19,0,13.79,1.78,18.86,4.31v16.83c-5.41-3.3-12.01-5.67-18.19-5.67-10.91,0-17.59,7.19-17.59,16.41s6.51,16.49,17.26,16.49c1.27,0,2.79-.17,3.72-.42v-6.51h-8.37v-12.77h25.21v30.03ZM554.96,369.72h17.43v22.08h21.82v-22.08h17.43v61.24h-17.43v-24.45h-21.82v24.45h-17.43v-61.24ZM668.98,427.57v-.16c9.3-5.42,15.65-15.39,15.65-27.06,0-17.69-14.3-31.55-32.74-31.55s-32.73,13.86-32.73,31.55,14.04,31.29,32.23,31.55c4.65,4.57,11.16,9.64,18.43,13.27l15.57-8.88c-5.5-2.45-11.16-5.41-16.4-8.72ZM709.32,368.73v63.38h-12.78v-63.38h12.78Z"/>
    <path d="M657.23,412.32c0,3.89-2.39,6.48-4.12,7.84l-1.22-12.45-1.22,12.45c-1.73-1.36-4.12-3.95-4.12-7.84,0-1.82.52-3.92,1.56-6.25.71-1.6,1.65-3.27,2.78-4.95.38-.56.72-1.03.99-1.4.28.37.62.85,1,1.4,1.13,1.68,2.07,3.35,2.78,4.95,1.04,2.32,1.56,4.42,1.56,6.25ZM639.82,415.6c1.66,1.66,3.6,2.85,5.52,3.7-.94-.81-1.76-1.72-2.5-2.67l-.37-.48-.19-.24-.17-.25-.66-1.01c-.23-.33-.41-.69-.6-1.04l-.58-1.05c-.33-.73-.68-1.44-1-2.17l-.85-2.22,1.1,2.1c.4.68.82,1.35,1.22,2.02l.68.96c.23.31.44.65.7.94l.74.9.19.22.2.21.4.41c.91.93,1.9,1.78,2.98,2.45-1.04-1.58-1.83-3.58-1.83-6.04,0-1.9.49-4.03,1.44-6.34-3.02-2.25-7.9-3.1-10.64-3.41-.58-.06-1.08-.11-1.47-.14.26,2.4,1.34,8.8,5.68,13.15ZM658.98,412.32c0,2.46-.79,4.46-1.83,6.04,1.08-.67,2.07-1.52,2.98-2.45l.4-.41.2-.21.19-.22.74-.9c.26-.29.47-.62.7-.94l.68-.96c.41-.67.82-1.34,1.22-2.02l1.1-2.1-.85,2.22c-.32.73-.66,1.44-1,2.17l-.58,1.05c-.2.35-.37.71-.6,1.04l-.66,1.01-.17.25-.19.24-.37.48c-.74.95-1.56,1.86-2.5,2.67,1.92-.85,3.86-2.04,5.52-3.7,4.33-4.35,5.42-10.75,5.68-13.15-.4.03-.9.07-1.47.14-2.74.31-7.62,1.16-10.64,3.41.96,2.31,1.44,4.44,1.44,6.34ZM652.91,398.18c.12.15.26.34.42.56.8-1.82,2.2-3.54,4.17-5.14-.84-1.87-2-3.62-3.46-5.23-.88-.97-1.66-1.66-2.15-2.06-.48.39-1.27,1.09-2.15,2.06-1.45,1.61-2.62,3.37-3.46,5.23,1.97,1.6,3.37,3.32,4.17,5.14.16-.22.3-.4.42-.55l1.02-7.98,1.02,7.98ZM651.24,384.6l.65-3.91.65,3.91c.32.24,1.14.88,2.15,1.91.73-.74,1.54-1.4,2.44-1.99-1.75-3.2-4.26-5.03-5.24-5.66-.98.63-3.48,2.45-5.23,5.66.9.59,1.72,1.25,2.44,1.99,1-1.02,1.82-1.66,2.14-1.9ZM654.55,400.48c.87,1.31,1.62,2.62,2.24,3.89,1.12-.78,2.43-1.39,3.77-1.88.34-.38.65-.81.93-1.26.41-.66.76-1.38,1.06-2.12.3-.74.56-1.5.78-2.28.23-.78.4-1.57.57-2.37-.06.81-.13,1.62-.25,2.43-.12.81-.27,1.62-.48,2.42-.21.8-.47,1.6-.81,2.37-.04.09-.08.18-.13.26,1.87-.53,3.71-.85,5.14-1.03,1.15-4.92-.34-8.81-1.04-10.26-.66.25-1.75.69-3.01,1.32-1.57.78-3,1.65-4.23,2.59-2.42,1.84-3.95,3.83-4.54,5.92ZM641.54,401.95c-.04-.09-.09-.18-.13-.26-.34-.77-.61-1.57-.81-2.37-.21-.8-.36-1.61-.48-2.42-.12-.81-.19-1.62-.25-2.43.17.8.34,1.59.57,2.37.23.78.48,1.54.78,2.28.3.74.65,1.46,1.06,2.12.28.45.59.88.93,1.26,1.35.49,2.65,1.1,3.78,1.88.63-1.27,1.38-2.58,2.24-3.89-.59-2.09-2.12-4.08-4.55-5.92-1.21-.93-2.64-1.8-4.23-2.59-1.25-.63-2.34-1.07-3.01-1.32-.7,1.45-2.2,5.34-1.04,10.26,1.43.18,3.26.5,5.13,1.03ZM658.73,392.12s.02-.05.03-.08c.2-.59.38-1.2.53-1.81.16-.61.28-1.23.38-1.85.11-.62.17-1.25.21-1.89.03.63.04,1.27,0,1.91-.03.64-.09,1.27-.17,1.91-.08.63-.19,1.27-.33,1.9,0,0,0,.01,0,.02.83-.55,1.72-1.07,2.67-1.56-.13-3.08-.6-5.17-.9-6.21-.59.2-1.47.56-2.44,1.12-1.08.62-2.03,1.37-2.85,2.21,1.15,1.36,2.1,2.81,2.87,4.33ZM644.39,392.21c-.14-.63-.24-1.26-.33-1.9-.09-.63-.14-1.27-.17-1.91-.04-.64-.02-1.27,0-1.91.05.63.1,1.26.21,1.89.1.62.23,1.24.38,1.85.15.61.33,1.21.53,1.81,0,.03.02.05.03.08.77-1.52,1.73-2.97,2.87-4.33-.82-.84-1.78-1.58-2.85-2.21-.97-.57-1.85-.92-2.44-1.12-.3,1.03-.77,3.11-.9,6.21.95.49,1.84,1.01,2.66,1.56,0,0,0,0,0-.01Z"/>
  </g>
</svg>